<?xml version="1.0" encoding="UTF-8"?>
<svg id="Layer_2" data-name="Layer 2" xmlns="http://www.w3.org/2000/svg" width="206.25" height="46.88" xmlns:xlink="http://www.w3.org/1999/xlink" viewBox="0 0 206.25 46.88">
  <defs>
    <filter id="drop-shadow-1" filterUnits="userSpaceOnUse">
      <feOffset dx="1" dy="1"/>
      <feGaussianBlur result="blur" stdDeviation="1"/>
      <feFlood flood-color="#040000" flood-opacity=".2"/>
      <feComposite in2="blur" operator="in"/>
      <feComposite in="SourceGraphic"/>
    </filter>
  </defs>
  <g id="popup">
    <g style="">
      <g>
        <path d="m23.44,45.88c-12.37,0-22.44-10.07-22.44-22.44S11.07,1,23.44,1h159.38c12.37,0,22.44,10.07,22.44,22.44s-10.07,22.44-22.44,22.44H23.44Z" style="fill: #fff;"/>
        <path d="m182.81,2c11.82,0,21.44,9.62,21.44,21.44s-9.62,21.44-21.44,21.44H23.44c-11.82,0-21.44-9.62-21.44-21.44S11.62,2,23.44,2h159.38m0-2H23.44C10.49,0,0,10.49,0,23.44h0c0,12.94,10.49,23.44,23.44,23.44h159.38c12.94,0,23.44-10.49,23.44-23.44h0c0-12.94-10.49-23.44-23.44-23.44h0Z" style="fill: #595a5a;"/>
      </g>
      <g>
        <path d="m70.97,15.4c0,.34-.22,1.78-.24,2.07-.24,2.05-.24,3.73-.24,4.02,0,4.31,1.1,8.51,2.85,8.51.9,0,1.83-1.93,2.39-3.39.44-1.15.59-1.56,1.37-1.56.49,0,1.34.27,1.34,1.15,0,.61-.54,2.02-1.19,3.32-1.15,2.22-2.36,3.56-4.02,3.56-2.58,0-5.44-3.8-5.44-11.77,0-2.56.29-4.92.41-5.68.12-.66.32-1.34,1.37-1.34.27,0,1.41,0,1.41,1.12Zm15.65,4.63c1.22,2.85,1.61,5.63,1.61,7.31,0,.63,0,1.85-1.44,1.85-1.19,0-1.24-.78-1.36-2.19-.29-3.68-1.44-6.48-2.58-8.34-.56-.88-.68-1.12-.68-1.39,0-.59.56-1.19,1.29-1.19,1.17,0,2.41,2.22,3.17,3.95Z"/>
        <path d="m96.56,15.4c0,.34-.22,1.78-.24,2.07-.24,2.05-.24,3.73-.24,4.02,0,4.31,1.1,8.51,2.85,8.51.9,0,1.83-1.93,2.39-3.39.44-1.15.59-1.56,1.37-1.56.49,0,1.34.27,1.34,1.15,0,.61-.54,2.02-1.19,3.32-1.15,2.22-2.36,3.56-4.02,3.56-2.58,0-5.44-3.8-5.44-11.77,0-2.56.29-4.92.41-5.68.12-.66.32-1.34,1.37-1.34.27,0,1.41,0,1.41,1.12Zm15.65,4.63c1.22,2.85,1.61,5.63,1.61,7.31,0,.63,0,1.85-1.44,1.85-1.19,0-1.24-.78-1.37-2.19-.29-3.68-1.44-6.48-2.58-8.34-.56-.88-.68-1.12-.68-1.39,0-.59.56-1.19,1.29-1.19,1.17,0,2.41,2.22,3.17,3.95Z"/>
        <path d="m121.57,20.83c-1.19,0-1.32-1.02-1.32-1.34,0-1.27.85-1.29,2.17-1.34,3.46-.12,7.31-.46,9.14-.71.46-.05,2.44-.39,2.85-.39.98,0,1.27.78,1.27,1.24s-.24.66-.8,1.12c-1.97,1.61-3.92,3.24-5.78,4.95.17-.02.34-.02.54-.02.83,0,1.56.41,1.95.9.39.49.46.95.46,2,0,.29-.05,1.63-.05,1.9,0,1.46.39,1.95,2.71,1.95.54,0,3.14-.22,3.34-.22.85,0,1.12.54,1.12,1.19,0,1.05-.29,1.49-4.1,1.49-4.19,0-5.68-.51-5.68-3.73,0-.34.07-1.85.07-2.17,0-.27,0-1.19-1.27-1.19-1.41,0-2.83,1.63-7.04,6.46-.2.22-.46.54-.93.54-.61,0-1.51-.51-1.51-1.41,0-.59,0-.66,3.73-4.36,4.19-4.19,6.83-6.53,8.36-7.9-3.56.59-8.92,1.05-9.24,1.05Zm3.02-8.34c.51,0,2.9.56,3.39.63,1.24.2,3.1.39,4.63.51.8.07,1.19.37,1.19,1.12,0,.34-.05,1.24-1.24,1.24-.9,0-3.46-.24-5.87-.66-2.51-.41-3.29-.54-3.29-1.54,0-.63.39-1.32,1.19-1.32Z"/>
      </g>
    </g>
  </g>
</svg>