<?xml version="1.0" encoding="UTF-8"?>
<svg id="Layer_2" data-name="Layer 2" xmlns="http://www.w3.org/2000/svg" width="206.25" height="46.88" xmlns:xlink="http://www.w3.org/1999/xlink" viewBox="0 0 206.25 46.88">
  <defs>
    <filter id="drop-shadow-1" filterUnits="userSpaceOnUse">
      <feOffset dx="1" dy="1"/>
      <feGaussianBlur result="blur" stdDeviation="1"/>
      <feFlood flood-color="#040000" flood-opacity=".2"/>
      <feComposite in2="blur" operator="in"/>
      <feComposite in="SourceGraphic"/>
    </filter>
  </defs>
  <g id="popup">
    <g style="">
      <g>
        <path d="m23.44,45.88c-12.37,0-22.44-10.07-22.44-22.44S11.07,1,23.44,1h159.38c12.37,0,22.44,10.07,22.44,22.44s-10.07,22.44-22.44,22.44H23.44Z" style="fill: #3264c3;"/>
        <path d="m182.81,2c11.82,0,21.44,9.62,21.44,21.44s-9.62,21.44-21.44,21.44H23.44c-11.82,0-21.44-9.62-21.44-21.44S11.62,2,23.44,2h159.38m0-2H23.44C10.49,0,0,10.49,0,23.44h0c0,12.94,10.49,23.44,23.44,23.44h159.38c12.94,0,23.44-10.49,23.44-23.44h0c0-12.94-10.49-23.44-23.44-23.44h0Z" style="fill: #0048a4;"/>
      </g>
      <g>
        <path d="m78.68,13.86c.1-.24.29-.8,1.19-.8.54,0,1.39.24,1.39,1.12,0,.17-.02.41-.12.98-.39,1.95-1,5.07-1,9.43,0,3.36.41,5.31.78,7.07.1.46.12.66.12.85,0,.9-1.02,1.1-1.39,1.1-.83,0-1.15-.46-1.29-.85-.29-.88-.88-3.24-.88-8.61,0-3.63.76-9.09,1.19-10.29Zm14.65,12.43c2.07.78,3.49,1.68,3.75,1.88.54.37.76.76.76,1.22,0,.68-.46,1.39-1.17,1.39-.29,0-.54-.1-1.12-.49-.61-.41-1.34-.83-2.22-1.22-.05,1.19-.15,1.97-.46,2.58-.71,1.34-2.36,1.9-4.24,1.9-3.24,0-5.39-1.68-5.39-4.12,0-1.73,1.17-4.14,5.09-4.14.73,0,1.51.12,2.34.29l-.12-5.51c-1.07.05-1.76.05-2.73.05-3.88,0-4.61-.1-4.61-1.41,0-1.07.56-1.32,1.46-1.32.56,0,3.02.1,3.53.1,1.12,0,1.68-.02,2.27-.05l-.07-3.32c-.02-1.39,1.05-1.39,1.37-1.39.98,0,1.29.56,1.32,1.37l.07,3.14c.46-.02,2.58-.29,2.93-.29,1.07,0,1.1,1.12,1.1,1.32,0,1.32-.61,1.36-3.97,1.63l.12,6.39Zm-5.05,1.34c-1.44,0-2.63.58-2.63,1.75,0,1.02,1,1.8,2.66,1.8,2.41,0,2.41-1.22,2.41-3.14-.83-.29-1.49-.41-2.44-.41Z" style="fill: #fff;"/>
        <path d="m112.56,15.4c0,.34-.22,1.78-.24,2.07-.24,2.05-.24,3.73-.24,4.02,0,4.31,1.1,8.51,2.85,8.51.9,0,1.83-1.93,2.39-3.39.44-1.15.59-1.56,1.37-1.56.49,0,1.34.27,1.34,1.15,0,.61-.54,2.02-1.19,3.32-1.15,2.22-2.36,3.56-4.02,3.56-2.58,0-5.44-3.8-5.44-11.77,0-2.56.29-4.92.41-5.68.12-.66.32-1.34,1.37-1.34.27,0,1.41,0,1.41,1.12Zm15.65,4.63c1.22,2.85,1.61,5.63,1.61,7.31,0,.63,0,1.85-1.44,1.85-1.19,0-1.24-.78-1.37-2.19-.29-3.68-1.44-6.48-2.58-8.34-.56-.88-.68-1.12-.68-1.39,0-.59.56-1.19,1.29-1.19,1.17,0,2.41,2.22,3.17,3.95Z" style="fill: #fff;"/>
      </g>
    </g>
  </g>
</svg>