<?xml version="1.0" encoding="UTF-8"?>
<svg id="Layer_2" data-name="Layer 2" xmlns="http://www.w3.org/2000/svg" viewBox="0 0 218.94 20.99">
  <g id="popup">
    <g>
      <path d="m20.97,2.57h-9.61v2.3h5.09v11.75H4.57V4.86h5.04v-2.3H0V.86h20.97v1.71ZM2.66,4.55v14.29h15.68V4.55h1.85v15.95H.86V4.55h1.8Zm6.95,1.84h-3.31v3.44h3.31v-3.44Zm0,4.95h-3.31v3.71h3.31v-3.71Zm5.08-4.95h-3.33v3.44h3.33v-3.44Zm0,4.95h-3.33v3.71h3.33v-3.71Z"/>
      <path d="m27.73,20.99h-1.8v-11.54c-.63,1.03-.99,1.46-1.44,1.98l-.97-2.11c2.18-2.59,3.31-5.87,3.91-9.29l1.85.29c-.18.92-.5,2.72-1.55,5.42v15.26Zm.97-5.33c3.87-.86,6.28-2.81,6.8-3.24-.34-.43-.54-.63-.67-.79-2.34,1.46-4.19,2.05-5.67,2.41l-.56-1.46c3.76-.83,5.6-2.14,6.37-2.77h-4.79v-3.8c-.25.16-.4.25-.9.52l-.88-1.46c1.01-.52,3.44-1.85,5.18-5.02l1.82.31c-.27.52-.4.72-.65,1.1h6.28v1.48c-.61.74-1.4,1.44-1.55,1.6h4.46v5.27h-5.24c.25.86.56,1.67.94,2.47.14-.09,1.64-.9,2.9-2.03l1.28,1.17c-1.12.95-2,1.46-3.46,2.21,1.48,2.45,2.81,3.67,4.37,4.77l-.97,1.71c-4.52-3.51-6.01-8.46-6.53-10.31h-.09c-.63.61-.92.86-1.1.99,1.78,1.82,2.9,4.21,2.9,6.75,0,1.89-.67,3.37-3.01,3.37h-2.16l-.31-1.71,2.25.02c.77,0,1.55-.09,1.55-1.82,0-.61-.07-.92-.11-1.3-3.51,2.79-6.95,3.8-8.05,4.12l-.59-1.42c2.59-.72,5.15-1.73,8.24-4.18-.2-.56-.43-.99-.49-1.08-1.26,1.06-3.67,2.61-6.98,3.55l-.54-1.44Zm7.52-9.72h-4.43v2.45h4.43v-2.45Zm-2.54-3.04c-.29.34-.79.92-1.57,1.64h5.17c.56-.5,1.1-1.06,1.55-1.64h-5.15Zm8.59,3.04h-4.48v2.45h4.48v-2.45Z"/>
      <path d="m64.8,3.08v1.8h-9.92c-.52,1.37-.83,2.12-1.48,3.24,1.57-.94,2.48-1.33,3.6-1.33,1.53,0,2.97.5,3.42,2.63.52-.2,3.6-1.44,5.62-2.14l.54,1.96c-1.82.52-3.42,1.01-5.9,1.96.07.79.09,1.76.09,2.57,0,.31,0,.99-.07,1.71h-1.96c.04-.52.11-1.35.11-2.16,0-.38,0-.77-.05-1.35-1.73.81-4.45,2.25-4.45,4.1,0,1.98,2.5,1.98,4.97,1.98,1.8,0,3.91-.09,5.94-.31l.07,1.94c-1.28.09-3.24.23-5.38.23-2.54,0-7.63,0-7.63-3.62,0-3.06,4.03-5.09,6.26-6.08-.25-1.33-.88-1.78-1.91-1.78-1.24,0-2.88.7-4.45,2.3-1.04,1.42-2.52,3.4-3.24,4.14l-1.4-1.51c1.98-1.87,3.78-4.25,5.22-8.46h-4.63v-1.8h5.17c.16-.59.31-1.24.47-2.52l2.16.09c-.14.79-.25,1.3-.56,2.43h9.38Z"/>
      <path d="m74.51,20.97h-1.84v-11.75c-.77,1.19-1.28,1.73-1.78,2.27l-.94-2.09c2.32-2.57,3.91-6.28,4.52-9.41l1.89.34c-.18.88-.54,2.68-1.85,5.54v15.1Zm.97-2.75c4.23-2.18,6.21-5.6,6.57-6.19h-5.94v-1.69h6.62v-2.41h-5.15V.76h12.19v7.18h-5.22v2.41h6.55v1.69h-5.92c1.08,2,3.17,4.39,6.26,6.23l-1.17,1.58c-2.07-1.42-3.98-3.08-5.72-6.17v7.29h-1.82v-7.18c-1.08,1.8-2.95,4.12-6.17,6.01l-1.08-1.58Zm12.51-15.8h-8.62v3.87h8.62v-3.87Z"/>
      <path d="m115.09,2.43v1.73h-12.78c-.7,1.71-1.62,3.55-2.95,5.29v11.5h-1.85v-9.43c-1.08,1.01-1.78,1.48-2.41,1.93l-.99-1.69c1.06-.67,4.14-2.66,6.19-7.61h-6.01v-1.73h6.66c.34-.97.52-1.76.68-2.41l1.94.16c-.23.88-.36,1.46-.63,2.25h12.15Zm0,9.79v1.69h-5.94v5.38c0,1.17-.52,1.67-1.91,1.67h-3.2l-.43-1.82,3.02.02c.65,0,.65-.25.65-.59v-4.66h-6.53v-1.69h6.53v-1.76h.63c.72-.36,1.91-.97,3.44-2.48h-8.89v-1.69h11.41v1.69c-1.4,1.46-3.33,2.77-4.72,3.47v.77h5.94Z"/>
      <path d="m122.52,1.13c-.2,6.08-.29,8.75-.29,10.89,0,2.88.14,5.9,4.37,5.9,5.83,0,6.57-4.05,7.2-7.47l1.89.7c-.72,4.07-2.18,8.71-9.02,8.71-6.17,0-6.57-4.12-6.57-8.03,0-1.69.14-9.16.16-10.69h2.27Z"/>
      <path d="m157.11,3.4v1.73h-7.18v2.79h6.75v1.71h-6.75v3.15c2.39.88,4.37,2.11,6.73,4.1l-1.33,1.94c-2.18-2.41-4.16-3.44-5.4-4.01v1.28c0,3.22-2.68,3.83-4.57,3.83-4.39,0-5.33-2.34-5.33-3.78,0-2.36,2.32-4.07,5.67-4.07,1.01,0,1.78.13,2.25.22v-2.66h-8.21v-1.71h8.21v-2.79h-8.55v-1.73h8.55V1.03h1.98v2.36h7.18Zm-9.16,10.64c-.45-.14-1.1-.32-2.25-.32-2.09,0-3.78.86-3.78,2.34,0,.43.23,2.09,3.2,2.09,1.96,0,2.84-.7,2.84-2.47v-1.64Z"/>
      <path d="m180.45,3.33v1.87h-5.89v4.52c.11.43.23.95.29,1.49.09.56.14,1.15.14,1.73,0,5.94-5.26,7.02-9.18,7.18l-.63-1.89c6.01.07,7.67-2,7.97-4.68-.22.47-.97,2.16-3.55,2.16-2.79,0-4.19-2.23-4.19-4.41,0-2.63,1.87-4.57,4.66-4.57,1.51,0,2.05.49,2.52.9l-.02-2.43h-11.09v-1.87h11.07l-.05-2.52h2.07v2.52h5.89Zm-7.83,7.13c-.18-.72-.54-2.05-2.52-2.05-1.24,0-2.81.72-2.81,2.79,0,.94.47,2.86,2.57,2.86,1.6,0,2.77-1.13,2.77-2.61v-.99Z"/>
      <path d="m184.27,18.95c2.5-5,3.62-10.67,3.89-12.11l-3.58.02v-1.94h3.91c.23-1.42.34-2.3.52-4.05l2.18.09c-.27,1.78-.36,2.3-.65,3.96h2.43c2.68,0,4.91.59,4.91,5.81,0,1.8-.27,4.88-1.08,6.8-.97,2.25-2.88,2.25-3.92,2.25-1.3,0-2.29-.11-2.66-.16l-.09-2.07c.52.09,1.31.27,2.45.27,1.51,0,2.11-.5,2.59-2,.31-.97.67-2.93.67-5.18,0-3.76-1.24-3.89-3.96-3.85l-1.71.02c-.92,4.45-2,8.89-3.96,13.01l-1.96-.88Zm17.39-6.08c-.18-2.83-.9-6.23-3.2-8.96l1.66-.92c2.59,2.63,3.42,6.57,3.69,9.5l-2.16.38Z"/>
      <path d="m208.16,2.95c1.44-1.3,3.06-1.96,5.02-1.96,3.56,0,5.76,2.36,5.76,4.95,0,2.09-1.33,3.17-3.02,4.55-1.53,1.24-1.64,1.78-1.64,4.19h-2c0-2.54.09-3.62,2.27-5.45,1.73-1.44,2.32-1.96,2.32-3.29,0-1.69-1.46-3.08-3.67-3.08-1.69,0-3.15.77-4.37,1.98l-.68-1.89Zm3.94,13.64h2.41v2.5h-2.41v-2.5Z"/>
    </g>
  </g>
</svg>