<?xml version="1.0" encoding="UTF-8"?>
<svg id="Layer_2" data-name="Layer 2" xmlns="http://www.w3.org/2000/svg" xmlns:xlink="http://www.w3.org/1999/xlink" viewBox="0 0 386 190">
  <defs>
    <filter id="outer-glow-1" filterUnits="userSpaceOnUse">
      <feOffset dx="0" dy="0"/>
      <feGaussianBlur result="blur" stdDeviation="7.85"/>
      <feFlood flood-color="#000" flood-opacity=".45"/>
      <feComposite in2="blur" operator="in"/>
      <feComposite in="SourceGraphic"/>
    </filter>
    <filter id="drop-shadow-2" filterUnits="userSpaceOnUse">
      <feOffset dx="0" dy="0"/>
      <feGaussianBlur result="blur-2" stdDeviation="2"/>
      <feFlood flood-color="#040000" flood-opacity=".2"/>
      <feComposite in2="blur-2" operator="in"/>
      <feComposite in="SourceGraphic"/>
    </filter>
  </defs>
  <g id="popup">
    <g>
      <rect x="23.81" y="24.25" width="337.5" height="140.62" rx="10" ry="10" style="fill: #fdf9e7; filter: url(#outer-glow-1);"/>
      <g>
        <g style="filter: url(#drop-shadow-2);">
          <g>
            <circle cx="121.65" cy="94.56" r="21.5" style="fill: #fff;"/>
            <path d="m121.65,74.06c11.3,0,20.5,9.2,20.5,20.5s-9.2,20.5-20.5,20.5-20.5-9.2-20.5-20.5,9.2-20.5,20.5-20.5m0-2c-12.43,0-22.5,10.07-22.5,22.5s10.07,22.5,22.5,22.5,22.5-10.07,22.5-22.5-10.07-22.5-22.5-22.5h0Z" style="fill: #595a5a;"/>
          </g>
          <g>
            <path d="m131.96,85.19h-2.7c-.36,0-.68-.2-.84-.52l-1.1-2.2c-.32-.64-.97-1.04-1.68-1.04h-7.99c-.71,0-1.36.4-1.68,1.04l-1.1,2.2c-.16.32-.48.52-.84.52h-2.7c-2.07,0-3.75,1.68-3.75,3.75v13.12c0,2.07,1.68,3.75,3.75,3.75h20.62c2.07,0,3.75-1.68,3.75-3.75v-13.12c0-2.07-1.68-3.75-3.75-3.75Zm-10.31,17.81c-4.66,0-8.44-3.78-8.44-8.44s3.78-8.44,8.44-8.44,8.44,3.78,8.44,8.44-3.78,8.44-8.44,8.44Z" style="fill: #223655;"/>
            <circle cx="121.65" cy="94.56" r="6.56" style="fill: #3264c3;"/>
            <polygon points="125.87 93.62 122.59 93.62 122.59 90.34 120.71 90.34 120.71 93.62 117.43 93.62 117.43 95.5 120.71 95.5 120.71 98.78 122.59 98.78 122.59 95.5 125.87 95.5 125.87 93.62" style="fill: #fff;"/>
          </g>
        </g>
        <g>
          <path d="m159.97,105.05h-1.85v-11.75c-.77,1.19-1.28,1.73-1.78,2.27l-.94-2.09c2.32-2.57,3.91-6.28,4.52-9.41l1.89.34c-.18.88-.54,2.68-1.85,5.54v15.1Zm.97-2.75c4.23-2.18,6.21-5.6,6.57-6.19h-5.94v-1.69h6.62v-2.41h-5.15v-7.18h12.2v7.18h-5.22v2.41h6.55v1.69h-5.92c1.08,2,3.17,4.39,6.25,6.23l-1.17,1.58c-2.07-1.42-3.98-3.08-5.71-6.17v7.29h-1.82v-7.18c-1.08,1.8-2.95,4.12-6.17,6.01l-1.08-1.58Zm12.51-15.8h-8.62v3.87h8.62v-3.87Z"/>
          <path d="m200.55,86.51v1.73h-12.78c-.7,1.71-1.62,3.55-2.95,5.29v11.5h-1.85v-9.43c-1.08,1.01-1.78,1.48-2.41,1.93l-.99-1.69c1.06-.67,4.14-2.66,6.19-7.61h-6.01v-1.73h6.66c.34-.97.52-1.76.68-2.41l1.94.16c-.23.88-.36,1.46-.63,2.25h12.15Zm0,9.79v1.69h-5.94v5.38c0,1.17-.52,1.67-1.91,1.67h-3.2l-.43-1.82,3.02.02c.65,0,.65-.25.65-.59v-4.66h-6.53v-1.69h6.53v-1.76h.63c.72-.36,1.91-.97,3.44-2.48h-8.89v-1.69h11.41v1.69c-1.4,1.46-3.33,2.77-4.72,3.47v.77h5.94Z"/>
          <path d="m207.98,85.2c-.2,6.08-.29,8.75-.29,10.89,0,2.88.14,5.9,4.37,5.9,5.83,0,6.57-4.05,7.2-7.47l1.89.7c-.72,4.07-2.18,8.71-9.02,8.71-6.17,0-6.57-4.12-6.57-8.03,0-1.69.14-9.16.16-10.69h2.27Z"/>
          <path d="m242.57,87.47v1.73h-7.18v2.79h6.75v1.71h-6.75v3.15c2.38.88,4.37,2.11,6.73,4.1l-1.33,1.94c-2.18-2.41-4.16-3.44-5.4-4.01v1.28c0,3.22-2.68,3.83-4.57,3.83-4.39,0-5.33-2.34-5.33-3.78,0-2.36,2.32-4.07,5.67-4.07,1.01,0,1.78.13,2.25.22v-2.66h-8.21v-1.71h8.21v-2.79h-8.55v-1.73h8.55v-2.36h1.98v2.36h7.18Zm-9.16,10.64c-.45-.14-1.1-.32-2.25-.32-2.09,0-3.78.86-3.78,2.34,0,.43.22,2.09,3.2,2.09,1.96,0,2.83-.7,2.83-2.47v-1.64Z"/>
          <path d="m250.75,85.2c-.2,6.08-.29,8.75-.29,10.89,0,2.88.14,5.9,4.37,5.9,5.83,0,6.57-4.05,7.2-7.47l1.89.7c-.72,4.07-2.18,8.71-9.02,8.71-6.17,0-6.57-4.12-6.57-8.03,0-1.69.14-9.16.16-10.69h2.27Z"/>
          <path d="m266.67,103.58c2.36-4.55,3.6-11.93,3.87-13.73h-3.28v-1.91h3.53c.16-1.57.16-1.67.27-2.97l2.18.07c-.14,1.15-.18,1.48-.36,2.9h6.19v1.91h-6.46c-.92,5.6-2.52,11.41-3.85,14.42l-2.09-.7Zm10.51-5.81c-.77,1.13-.77,1.8-.77,2.05,0,1.98,2.61,2.07,5.22,2.07.77,0,2.45-.05,4.32-.18l.02,2.05c-.56.02-3.51.07-4.23.07-2.66,0-7.25,0-7.25-3.83,0-1.13.47-2.05,1.06-2.97l1.62.74Zm8.28-4.77c-.61-.02-1.28-.07-2.3-.07-2.27,0-4.18.22-6.17.94l-.65-1.73c1.71-.65,3.85-1.33,9.11-1.17v2.03Z"/>
        </g>
      </g>
    </g>
  </g>
</svg>