<svg xmlns="http://www.w3.org/2000/svg" width="28" height="34.22" viewBox="0 0 28 34.22">
  <g id="Layer_2" data-name="Layer 2">
    <g id="文字カード見本">
      <g>
        <rect x="0.62" y="0.62" width="26.76" height="32.98" style="fill: #fff"/>
        <path d="M26.76,1.24V33H1.24V1.24H26.76M28,0H0V34.22H28V0Z" style="fill: #828ca0"/>
      </g>
      <g>
        <path d="M21.89,7.41H17.76V6.65A2.27,2.27,0,0,0,15.5,4.36h-3a2.27,2.27,0,0,0-2.26,2.29v.76H6.11A1.9,1.9,0,0,0,4.23,9.32v1.53a.75.75,0,0,0,.75.76H23a.75.75,0,0,0,.75-.76V9.32A1.89,1.89,0,0,0,21.89,7.41ZM11.74,6.65a.77.77,0,0,1,.76-.77h3a.76.76,0,0,1,.75.77v.76H11.74Z" style="fill: #595a5a"/>
        <path d="M22.65,13.63H5.35a.26.26,0,0,0-.25.26L5.75,27.6a2.35,2.35,0,0,0,2.33,2.27H19.92a2.35,2.35,0,0,0,2.33-2.27l.65-13.71A.26.26,0,0,0,22.65,13.63ZM10.78,27a.65.65,0,1,1-1.29,0V16.51a.65.65,0,1,1,1.29,0Zm3.86,0a.64.64,0,1,1-1.28,0V16.51a.64.64,0,1,1,1.28,0Zm3.87,0a.65.65,0,1,1-1.29,0V16.51a.65.65,0,1,1,1.29,0Z" style="fill: #595a5a"/>
      </g>
    </g>
  </g>
</svg>
